<?xml version="1.0" encoding="UTF-8"?>
<!DOCTYPE svg PUBLIC "-//W3C//DTD SVG 1.1//EN" "http://www.w3.org/Graphics/SVG/1.1/DTD/svg11.dtd">
<!-- Creator: CorelDRAW X7 -->
<svg xmlns="http://www.w3.org/2000/svg" xml:space="preserve" width="25px" height="22px" version="1.1" style="shape-rendering:geometricPrecision; text-rendering:geometricPrecision; image-rendering:optimizeQuality; fill-rule:evenodd; clip-rule:evenodd"
viewBox="0 0 22 20"
 xmlns:xlink="http://www.w3.org/1999/xlink">
 <defs>
  <style type="text/css">
   <![CDATA[
    .fil0 {fill:#35404F}
   ]]>
  </style>
 </defs>
 <g id="Camada_x0020_1">
  <metadata id="CorelCorpID_0Corel-Layer"/>
  <g id="_1879150116000">
   <g>
    <path class="fil0" d="M3 19c0,0 0,1 0,1 1,0 6,0 6,0l0 -5c0,0 0,-1 1,-1l2 0c1,0 1,1 1,1l0 5c0,0 5,0 5,0 1,0 1,-1 1,-1l0 -8 -8 -7 -8 7c0,0 0,8 0,8z"/>
    <path class="fil0" d="M0 10c0,0 1,1 2,0l9 -8 9 8c2,1 2,0 2,0l-11 -10 -11 10z"/>
    <polygon class="fil0" points="20,2 17,2 17,5 20,7 "/>
   </g>
   <g>
   </g>
   <g>
   </g>
   <g>
   </g>
   <g>
   </g>
   <g>
   </g>
   <g>
   </g>
   <g>
   </g>
   <g>
   </g>
   <g>
   </g>
   <g>
   </g>
   <g>
   </g>
   <g>
   </g>
   <g>
   </g>
   <g>
   </g>
   <g>
   </g>
  </g>
 </g>
</svg>
